# xmcd
#
# Track frame offsets:
#	150
#	13724
#	27237
#	43791
#	59238
#	72009
#	83697
#	97157
#	111820
#	127922
#	141442
#	159112
#	172779
#	184359
#	198265
#	208530
#	221309
#	232933
#
# Disc length: 3328 seconds
#
# Revision: 0
# Processed by: cddbd v1.5.2PL0 Copyright (c) Steve Scherf et al.
# Submitted via: dBpowerAMP V4.0
#
DISCID=f40cfe12
DTITLE=Jörg Hegemann Trio - The Art of Albert Ammons
DYEAR=2016
DGENRE=Blues
TTITLE0=The Art of Albert Ammons
TTITLE1=You Are My Sunshine
TTITLE2=When You And I Were Young, Maggie
TTITLE3=Blues Before Sunrise
TTITLE4=Kay Cee On My Mind
TTITLE5=Lux's Boogie
TTITLE6=Bear Den Boogie
TTITLE7=I Had To Move That Thing
TTITLE8=Relaxing At The Panther Room
TTITLE9=Mercury Days Boogie
TTITLE10=A Little Daydream
TTITLE11=Low Down Dog
TTITLE12=Tuxedo Boogie
TTITLE13=Blues For Albert
TTITLE14=Full Steam Boogie Woogie
TTITLE15=Sweet Patootie Boogie
TTITLE16=Tell Me Why You're Always Late
TTITLE17=Bugle Call Boogie
EXTD=
EXTT0=
EXTT1=
EXTT2=
EXTT3=
EXTT4=
EXTT5=
EXTT6=
EXTT7=
EXTT8=
EXTT9=
EXTT10=
EXTT11=
EXTT12=
EXTT13=
EXTT14=
EXTT15=
EXTT16=
EXTT17=
PLAYORDER=
